<svg xmlns="http://www.w3.org/2000/svg" version="1.1"
    xmlns:xlink="http://www.w3.org/1999/xlink"
    xmlns:svgjs="http://svgjs.dev/svgjs" width="1500" height="1500" viewBox="0 0 1500 1500">
    <rect width="1500" height="1500" fill="#ffffff00"></rect>
    <g transform="matrix(0.6666666666666666,0,0,0.6666666666666666,249.39393939393938,513.0572500777897)">
        <svg viewBox="0 0 396 187" data-background-color="#ffffff00" preserveAspectRatio="xMidYMid meet" height="708" width="1500"
            xmlns="http://www.w3.org/2000/svg"
            xmlns:xlink="http://www.w3.org/1999/xlink">
            <g id="tight-bounds" transform="matrix(1,0,0,1,0.2400000000000091,0.37350473612991664)">
                <svg viewBox="0 0 395.52 186.25299052774017" height="186.25299052774017" width="395.52">
                    <g>
                        <svg viewBox="0 0 395.52 186.25299052774017" height="186.25299052774017" width="395.52">
                            <g>
                                <svg viewBox="0 0 395.52 186.25299052774017" height="186.25299052774017" width="395.52">
                                    <g id="textblocktransform">
                                        <svg viewBox="0 0 395.52 186.25299052774017" height="186.25299052774017" width="395.52" id="textblock">
                                            <g>
                                                <svg viewBox="0 0 395.52 186.25299052774017" height="186.25299052774017" width="395.52">
                                                    <g transform="matrix(1,0,0,1,0,0)">
                                                        <svg width="395.52" viewBox="0.5 -34.5 73.9 34.8" height="186.25299052774017" data-palette-color="#35185a">
                                                            <path d="M8.6-1.1L8.6-1.1 4.45 0.3 4.1-0.05Q4.2-5.3 4.33-10.58 4.45-15.85 4.45-21.15L4.45-21.15Q4.45-23.35 4.38-25.58 4.3-27.8 4.2-30L4.2-30Q4.1-31.5 3.03-32 1.95-32.5 0.5-32.7L0.5-32.7 0.5-33.6 0.85-33.95 13.7-33.95Q19.85-33.95 22.55-31.83 25.25-29.7 25.25-25.7L25.25-25.7Q25.25-21.1 22.05-17.9L22.05-17.9Q20.4-16.2 17.9-15.53 15.4-14.85 12.95-14.65L12.95-14.65Q12.25-14.6 11.13-14.58 10-14.55 9.13-14.38 8.25-14.2 8.25-13.7L8.25-13.7Q8.25-13.1 8.33-11.05 8.4-9 8.5-6.33 8.6-3.65 8.6-1.1ZM11.8-32L11.8-32 9-32Q8.75-32 8.65-31.83 8.55-31.65 8.55-31.45L8.55-31.45Q8.4-28.15 8.33-24.23 8.25-20.3 8.25-17.05L8.25-17.05Q8.25-16.7 8.45-16.57 8.65-16.45 8.8-16.45L8.8-16.45Q14-16.45 17.23-18.8 20.45-21.15 20.45-25.3L20.45-25.3Q20.45-27.9 19.25-29.35 18.05-30.8 16.07-31.4 14.1-32 11.8-32ZM50.1-7.35L50.1-7.35 63.9-34.5 69.05-34.5 69.05-33.9Q68.05-33.4 67.92-32.1 67.8-30.8 67.8-29.15L67.8-29.15Q67.8-23 67.92-17.13 68.05-11.25 68.7-5.1L68.7-5.1Q68.8-4 69.57-3.15 70.35-2.3 71.6-2.3L71.6-2.3Q72.1-2.3 72.92-2.43 73.75-2.55 74.4-2.6L74.4-2.6 74.4-1.4Q72.75-0.8 70.92-0.25 69.1 0.3 67.6 0.3L67.6 0.3Q66.5 0.3 65.47-0.1 64.45-0.5 64.45-1.45L64.45-1.45 64.45-10.55Q64.45-10.95 64.4-12.45 64.35-13.95 64.3-16.07 64.25-18.2 64.17-20.43 64.1-22.65 64.05-24.53 64-26.4 63.95-27.4L63.95-27.4Q63.95-28.15 63.55-28.15L63.55-28.15Q63.25-28.15 63-27.75L63-27.75 48.7-0.05 47.2-0.05Q45.8-3.45 44.25-7.13 42.7-10.8 41.17-14.45 39.65-18.1 38.22-21.3 36.8-24.5 35.6-26.9L35.6-26.9Q35.3-27.4 35.05-27.4L35.05-27.4Q34.8-27.4 34.5-25.8 34.2-24.2 33.87-21.6 33.55-19 33.25-15.95 32.95-12.9 32.67-9.93 32.4-6.95 32.22-4.63 32.05-2.3 31.95-1.15L31.95-1.15 28.2 0.15 27.85 0Q29.3-7.35 30.57-14.75 31.85-22.15 32.85-29.55L32.85-29.55Q32.9-29.7 32.9-29.85 32.9-30 32.9-30.15L32.9-30.15Q32.9-30.85 32.55-31.38 32.2-31.9 31.5-32.1L31.5-32.1 28.1-33.05 28.2-34.15 28.55-34.5 37.35-34.5Q38.75-30.5 40.65-25.95 42.55-21.4 44.72-16.73 46.9-12.05 48.95-7.6L48.95-7.6Q49.05-7.45 49.2-7.18 49.35-6.9 49.5-6.9L49.5-6.9Q49.9-6.9 50.1-7.35Z" opacity="1" transform="matrix(1,0,0,1,0,0)" fill="blueviolet" class="wordmark-text-0" data-fill-palette-color="primary" id="text-0"></path>
                                                        </svg>
                                                    </g>
                                                </svg>
                                            </g>
                                        </svg>
                                    </g>
                                </svg>
                            </g>
                            <g></g>
                        </svg>
                    </g>
                    <defs></defs>
                </svg>
                <rect width="395.52" height="186.25299052774017" fill="none" stroke="none" visibility="hidden"></rect>
            </g>
        </svg>
    </g>
</svg>