<svg class="svg-icon" style="width: 1em;height: 1em;vertical-align: middle;fill: currentColor;overflow: hidden;" viewBox="0 0 1024 1024" version="1.1" xmlns="http://www.w3.org/2000/svg"><path d="M127.3344 704.3584h57.7024v134.6304h134.6304v57.7024H127.3344z" fill="#64B5F6" /><path d="M127.3344 351.744v176.3072l112.1792 115.5328 48.1024-51.4048 144.2304 144.256-48.0768 48.0768 112.2048 112.1792h176.3328c17.664 0 32.0256-14.336 32.0256-32.0768V608.1792l-288.512-288.512H159.4368c-17.7152 0-32.0768 14.336-32.0768 32.0768z" fill="#1565C0" /><path d="M266.1376 590.08a32.0768 32.0768 0 0 1-3.9936-40.4736L525.0048 155.8528a64.0768 64.0768 0 0 1 53.3248-28.5184h286.2592c17.7152 0 32.0768 14.336 32.0768 32.0512v286.2592c0 21.4272-10.7008 41.4464-28.5184 53.3248L474.368 761.856a32.0768 32.0768 0 0 1-40.4736-3.9936z" fill="#1E88E5" /><path d="M287.232 689.3824l244.736-244.736 47.3856 47.36-244.736 244.7616z" fill="#0A44C2" /><path d="M287.232 689.3824l244.736-244.736 47.36 47.36-244.736 244.736z" fill="#64B5F6" /><path d="M373.76 697.6512l-47.4112-47.3856 205.6192-205.6192 47.4112 47.3856z" fill="#42A5F5" /><path d="M704.3328 415.8464a96.1792 96.1792 0 1 0 0-192.3584 96.1792 96.1792 0 0 0 0 192.3584z" fill="#0A44C2" /><path d="M704.3584 415.8464a96.1792 96.1792 0 1 0-0.0256-192.3584 96.1792 96.1792 0 0 0 0 192.3584z" fill="#90CAF9" /></svg>